<svg width="27" height="23" viewBox="0 0 27 23" fill="none" xmlns="http://www.w3.org/2000/svg">
<path d="M25.3125 1.09491H0.9375C0.418945 1.09491 0 1.51385 0 2.03241V20.7824C0 21.301 0.418945 21.7199 0.9375 21.7199H25.3125C25.8311 21.7199 26.25 21.301 26.25 20.7824V2.03241C26.25 1.51385 25.8311 1.09491 25.3125 1.09491ZM24.1406 4.341V19.6105H2.10938V4.341L1.30078 3.71112L2.45215 2.23163L3.70605 3.20721H22.5469L23.8008 2.23163L24.9521 3.71112L24.1406 4.341ZM22.5469 3.20428L13.125 10.5285L3.70312 3.20428L2.44922 2.2287L1.29785 3.70819L2.10645 4.33807L12.1143 12.1193C12.4021 12.3429 12.7561 12.4643 13.1206 12.4643C13.4851 12.4643 13.8391 12.3429 14.127 12.1193L24.1406 4.341L24.9492 3.71112L23.7979 2.23163L22.5469 3.20428Z" fill="#2091F9"/>
</svg>
