<svg width="26" height="33" viewBox="0 0 26 33" fill="none" xmlns="http://www.w3.org/2000/svg">
<g clip-path="url(#clip0_1_417)">
<path d="M12.9998 19.5741C16.4927 19.5741 19.3332 16.7336 19.3332 13.2407C19.3332 9.74791 16.4927 6.90741 12.9998 6.90741C9.507 6.90741 6.6665 9.74791 6.6665 13.2407C6.6665 16.7336 9.507 19.5741 12.9998 19.5741ZM12.9998 10.0741C14.7463 10.0741 16.1665 11.4943 16.1665 13.2407C16.1665 14.9872 14.7463 16.4074 12.9998 16.4074C11.2534 16.4074 9.83317 14.9872 9.83317 13.2407C9.83317 11.4943 11.2534 10.0741 12.9998 10.0741Z" fill="#2091F9"/>
<path d="M11.7487 31.9463C12.0166 32.1376 12.3377 32.2405 12.667 32.2405C12.9963 32.2405 13.3173 32.1376 13.5853 31.9463C14.0667 31.6058 25.3796 23.4374 25.3337 13.2408C25.3337 6.25668 19.6511 0.574097 12.667 0.574097C5.68291 0.574097 0.000322499 6.25668 0.000322499 13.2328C-0.0455942 23.4374 11.2673 31.6058 11.7487 31.9463ZM12.667 3.74076C17.9062 3.74076 22.167 8.00151 22.167 13.2487C22.2002 20.2755 15.2193 26.5851 12.667 28.6545C10.1162 26.5835 3.13374 20.2723 3.16699 13.2408C3.16699 8.00151 7.42774 3.74076 12.667 3.74076Z" fill="#2091F9"/>
</g>
<defs>
<clipPath id="clip0_1_417">
<rect width="26" height="32" fill="white" transform="translate(0 0.40741)"/>
</clipPath>
</defs>
</svg>
