<svg width="171" height="81" viewBox="0 0 171 81" fill="none" xmlns="http://www.w3.org/2000/svg">
<g clip-path="url(#clip0_1_494)">
<path d="M37.1449 30.1787C35.9201 30.707 34.5873 31.0873 33.2144 31.2354C34.6398 30.3886 35.7072 29.0508 36.2163 27.4729C34.8788 28.2686 33.4135 28.8266 31.8855 29.122C31.2469 28.4393 30.4745 27.8954 29.6165 27.5242C28.7584 27.153 27.8332 26.9626 26.8983 26.9646C23.1158 26.9646 20.0739 30.0306 20.0739 33.793C20.0739 34.3214 20.1379 34.8497 20.242 35.3581C14.5783 35.0619 9.52702 32.3561 6.16884 28.2134C5.55694 29.2586 5.23629 30.4486 5.24023 31.6597C5.24023 34.0292 6.44502 36.1186 8.28221 37.3474C7.19952 37.3047 6.14219 37.0071 5.19621 36.4788V36.5628C5.19621 39.881 7.54173 42.6308 10.6678 43.2632C10.0808 43.4157 9.47701 43.4936 8.87059 43.4953C8.4263 43.4953 8.00603 43.4513 7.58175 43.3913C8.44631 46.097 10.9639 48.0623 13.9619 48.1263C11.6164 49.9635 8.67846 51.0442 5.48839 51.0442C4.91602 51.0442 4.38768 51.0242 3.83932 50.9602C6.86529 52.9014 10.4556 54.0222 14.3221 54.0222C26.8743 54.0222 33.7427 43.6234 33.7427 34.5976C33.7427 34.3014 33.7427 34.0052 33.7227 33.709C35.0516 32.7364 36.2163 31.5316 37.1449 30.1787Z" fill="white"/>
<path d="M100.21 24.4829H70.7512C70.0427 24.4829 69.4704 25.0553 69.4704 25.7637V55.2229C69.4704 55.9313 70.0427 56.5037 70.7512 56.5037H100.21C100.919 56.5037 101.491 55.9313 101.491 55.2229V25.7637C101.491 25.0553 100.919 24.4829 100.21 24.4829ZM96.5119 33.829H93.9543C91.949 33.829 91.5607 34.7816 91.5607 36.1825V39.2685H96.3478L95.7234 44.0996H91.5607V56.5037H86.5695V44.1036H82.3948V39.2685H86.5695V35.7062C86.5695 31.5715 89.0951 29.318 92.7855 29.318C94.5546 29.318 96.0716 29.4501 96.5159 29.5102V33.829H96.5119Z" fill="white"/>
<path d="M165.198 24.4829H135.739C135.031 24.4829 134.458 25.0553 134.458 25.7637V55.2229C134.458 55.9313 135.031 56.5037 135.739 56.5037H165.198C165.907 56.5037 166.479 55.9313 166.479 55.2229V25.7637C166.479 25.0553 165.907 24.4829 165.198 24.4829ZM143.956 51.7686H139.205V36.4867H143.956V51.7686ZM141.583 34.3973C141.038 34.3973 140.506 34.2358 140.053 33.9332C139.6 33.6307 139.247 33.2006 139.039 32.6974C138.83 32.1942 138.776 31.6405 138.882 31.1063C138.988 30.5721 139.25 30.0815 139.636 29.6963C140.021 29.3112 140.511 29.0489 141.046 28.9427C141.58 28.8364 142.133 28.891 142.637 29.0994C143.14 29.3078 143.57 29.6608 143.872 30.1136C144.175 30.5665 144.337 31.0989 144.337 31.6436C144.333 33.1645 143.1 34.3973 141.583 34.3973ZM161.744 51.7686H156.997V44.3358C156.997 42.5626 156.965 40.2852 154.527 40.2852C152.058 40.2852 151.677 42.2144 151.677 44.2077V51.7686H146.934V36.4867H151.489V38.5761H151.553C152.186 37.3753 153.735 36.1065 156.048 36.1065C160.859 36.1065 161.744 39.2725 161.744 43.3872V51.7686Z" fill="white"/>
</g>
<defs>
<clipPath id="clip0_1_494">
<rect width="170.96" height="80.9866" fill="white"/>
</clipPath>
</defs>
</svg>
